<svg width="29" height="25" viewBox="0 0 29 25" fill="none" xmlns="http://www.w3.org/2000/svg">
<path d="M27.1392 6.25002C26.2088 6.6146 25.2058 6.85419 24.1667 6.96877C25.23 6.41669 26.0517 5.54169 26.4383 4.4896C25.4354 5.01044 24.3238 5.37502 23.1517 5.58335C22.1971 4.68752 20.8558 4.16669 19.3333 4.16669C16.4938 4.16669 14.1738 6.16669 14.1738 8.63544C14.1738 8.9896 14.2221 9.33335 14.3067 9.65627C10.005 9.46877 6.17459 7.68752 3.62501 4.9896C3.17792 5.64585 2.92417 6.41669 2.92417 7.22919C2.92417 8.78127 3.83042 10.1563 5.23209 10.9375C4.37417 10.9375 3.57667 10.7292 2.87584 10.4167V10.4479C2.87584 12.6146 4.66417 14.4271 7.03251 14.8334C6.27214 15.0127 5.47387 15.0377 4.70042 14.9063C5.02861 15.7943 5.67136 16.5713 6.53832 17.1281C7.40527 17.6849 8.45284 17.9934 9.53376 18.0104C7.70148 19.2609 5.43025 19.9368 3.09334 19.9271C2.68251 19.9271 2.27167 19.9063 1.86084 19.8646C4.15667 21.1354 6.88751 21.875 9.81167 21.875C19.3333 21.875 24.5654 15.0625 24.5654 9.15627C24.5654 8.95835 24.5654 8.77085 24.5533 8.57294C25.5683 7.94794 26.4383 7.15627 27.1392 6.25002V6.25002Z" fill="#FFFBFB"/>
</svg>
