<svg width="29" height="24" viewBox="0 0 29 24" fill="none" xmlns="http://www.w3.org/2000/svg">
<path d="M27.3929 0H1.60708C1.18184 0.00261668 0.774902 0.143581 0.474198 0.39244C0.173494 0.641298 0.00316182 0.978071 0 1.33V22.67C0.00316182 23.0219 0.173494 23.3587 0.474198 23.6076C0.774902 23.8564 1.18184 23.9974 1.60708 24H15.4908V14.72H11.7208V11.09H15.4908V8.42C15.4908 5.32 17.7746 3.63 21.1338 3.63C22.2575 3.63 23.3813 3.63 24.505 3.77V7H22.1971C20.3725 7 20.0221 7.72 20.0221 8.77V11.08H24.3721L23.8042 14.71H20.0221V24H27.3929C27.8182 23.9974 28.2251 23.8564 28.5258 23.6076C28.8265 23.3587 28.9968 23.0219 29 22.67V1.33C28.9968 0.978071 28.8265 0.641298 28.5258 0.39244C28.2251 0.143581 27.8182 0.00261668 27.3929 0V0Z" fill="#FFFBFB"/>
</svg>

