<svg width="29" height="24" viewBox="0 0 29 24" fill="none" xmlns="http://www.w3.org/2000/svg">
<path d="M11.6 17.1429L19.1255 12L11.6 6.85714V17.1429ZM28.362 3.72C28.5505 4.52571 28.681 5.60571 28.768 6.97714C28.8695 8.34857 28.913 9.53143 28.913 10.56L29 12C29 15.7543 28.768 18.5143 28.362 20.28C27.9995 21.8229 27.1585 22.8171 25.8535 23.2457C25.172 23.4686 23.925 23.6229 22.011 23.7257C20.126 23.8457 18.4005 23.8971 16.8055 23.8971L14.5 24C8.4245 24 4.64 23.7257 3.1465 23.2457C1.8415 22.8171 1.0005 21.8229 0.638 20.28C0.4495 19.4743 0.319 18.3943 0.232 17.0229C0.1305 15.6514 0.0869999 14.4686 0.0869999 13.44L0 12C0 8.24571 0.232 5.48571 0.638 3.72C1.0005 2.17714 1.8415 1.18286 3.1465 0.754286C3.828 0.531429 5.075 0.377143 6.989 0.274285C8.874 0.154285 10.5995 0.102857 12.1945 0.102857L14.5 0C20.5755 0 24.36 0.274286 25.8535 0.754286C27.1585 1.18286 27.9995 2.17714 28.362 3.72V3.72Z" fill="#FFFBFB"/>
</svg>
