<svg width="127" height="30" viewBox="0 0 127 30" fill="none" xmlns="http://www.w3.org/2000/svg">
<line x1="2.5" y1="29.9821" x2="2.5" y2="-1.33514e-05" stroke="#008BFF" stroke-width="5"/>
<path d="M28.904 22.744H20.008L18.536 27H13.832L21.864 4.63203H27.08L35.112 27H30.376L28.904 22.744ZM27.688 19.16L24.456 9.81603L21.224 19.16H27.688ZM47.9383 9.01603C50.0503 9.01603 51.7569 9.68803 53.0583 11.032C54.3596 12.3547 55.0103 14.2107 55.0103 16.6V27H50.5303V17.208C50.5303 15.8 50.1783 14.7227 49.4743 13.976C48.7703 13.208 47.8103 12.824 46.5943 12.824C45.3569 12.824 44.3756 13.208 43.6503 13.976C42.9463 14.7227 42.5943 15.8 42.5943 17.208V27H38.1143V9.27203H42.5943V11.48C43.1916 10.712 43.9489 10.1147 44.8663 9.68803C45.8049 9.24003 46.8289 9.01603 47.9383 9.01603ZM61.5425 7.16003C60.7532 7.16003 60.0918 6.9147 59.5585 6.42403C59.0465 5.91203 58.7905 5.2827 58.7905 4.53603C58.7905 3.78936 59.0465 3.1707 59.5585 2.68003C60.0918 2.16803 60.7532 1.91203 61.5425 1.91203C62.3318 1.91203 62.9825 2.16803 63.4945 2.68003C64.0278 3.1707 64.2945 3.78936 64.2945 4.53603C64.2945 5.2827 64.0278 5.91203 63.4945 6.42403C62.9825 6.9147 62.3318 7.16003 61.5425 7.16003ZM63.7505 9.27203V27H59.2705V9.27203H63.7505ZM74.9608 27.288C73.5101 27.288 72.2088 27.032 71.0568 26.52C69.9048 25.9867 68.9874 25.272 68.3048 24.376C67.6434 23.48 67.2808 22.488 67.2168 21.4H71.7288C71.8141 22.0827 72.1448 22.648 72.7208 23.096C73.3181 23.544 74.0541 23.768 74.9288 23.768C75.7821 23.768 76.4434 23.5974 76.9128 23.256C77.4034 22.9147 77.6488 22.4774 77.6488 21.944C77.6488 21.368 77.3501 20.9414 76.7528 20.664C76.1768 20.3654 75.2488 20.0454 73.9688 19.704C72.6461 19.384 71.5581 19.0534 70.7048 18.712C69.8728 18.3707 69.1474 17.848 68.5288 17.144C67.9314 16.44 67.6328 15.4907 67.6328 14.296C67.6328 13.3147 67.9101 12.4187 68.4648 11.608C69.0408 10.7974 69.8514 10.1574 70.8968 9.68803C71.9634 9.2187 73.2114 8.98403 74.6408 8.98403C76.7528 8.98403 78.4381 9.51736 79.6968 10.584C80.9554 11.6294 81.6488 13.048 81.7768 14.84H77.4888C77.4248 14.136 77.1261 13.5814 76.5928 13.176C76.0808 12.7494 75.3874 12.536 74.5128 12.536C73.7021 12.536 73.0728 12.6854 72.6248 12.984C72.1981 13.2827 71.9848 13.6987 71.9848 14.232C71.9848 14.8294 72.2834 15.288 72.8808 15.608C73.4781 15.9067 74.4061 16.216 75.6648 16.536C76.9448 16.856 78.0008 17.1867 78.8328 17.528C79.6648 17.8694 80.3794 18.4027 80.9768 19.128C81.5954 19.832 81.9154 20.7707 81.9368 21.944C81.9368 22.968 81.6488 23.8854 81.0728 24.696C80.5181 25.5067 79.7074 26.1467 78.6408 26.616C77.5954 27.064 76.3688 27.288 74.9608 27.288ZM95.5983 9.01603C96.9423 9.01603 98.1369 9.3147 99.1823 9.91203C100.228 10.488 101.038 11.352 101.614 12.504C102.212 13.6347 102.51 15 102.51 16.6V27H98.0303V17.208C98.0303 15.8 97.6783 14.7227 96.9743 13.976C96.2703 13.208 95.3103 12.824 94.0943 12.824C92.8569 12.824 91.8756 13.208 91.1503 13.976C90.4463 14.7227 90.0943 15.8 90.0943 17.208V27H85.6143V3.32003H90.0943V11.48C90.6703 10.712 91.4383 10.1147 92.3983 9.68803C93.3583 9.24003 94.4249 9.01603 95.5983 9.01603ZM105.618 18.072C105.618 16.28 105.97 14.6907 106.674 13.304C107.4 11.9174 108.371 10.8507 109.587 10.104C110.824 9.35736 112.2 8.98403 113.715 8.98403C115.037 8.98403 116.189 9.2507 117.171 9.78403C118.173 10.3174 118.973 10.9894 119.571 11.8V9.27203H124.083V27H119.571V24.408C118.995 25.24 118.195 25.9334 117.171 26.488C116.168 27.0214 115.005 27.288 113.683 27.288C112.189 27.288 110.824 26.904 109.587 26.136C108.371 25.368 107.4 24.2907 106.674 22.904C105.97 21.496 105.618 19.8854 105.618 18.072ZM119.571 18.136C119.571 17.048 119.357 16.12 118.931 15.352C118.504 14.5627 117.928 13.9654 117.203 13.56C116.477 13.1334 115.699 12.92 114.867 12.92C114.035 12.92 113.267 13.1227 112.562 13.528C111.859 13.9334 111.283 14.5307 110.835 15.32C110.408 16.088 110.195 17.0054 110.195 18.072C110.195 19.1387 110.408 20.0774 110.835 20.888C111.283 21.6774 111.859 22.2854 112.562 22.712C113.288 23.1387 114.056 23.352 114.867 23.352C115.699 23.352 116.477 23.1494 117.203 22.744C117.928 22.3174 118.504 21.72 118.931 20.952C119.357 20.1627 119.571 19.224 119.571 18.136Z" fill="black"/>
</svg>
